<mxfile host="app.diagrams.net" agent="Mozilla/5.0 (X11; Ubuntu; Linux x86_64; rv:130.0) Gecko/20100101 Firefox/130.0" version="24.7.16">
  <diagram id="C5RBs43oDa-KdzZeNtuy" name="Page-1">
    <mxGraphModel dx="1010" dy="494" grid="1" gridSize="10" guides="1" tooltips="1" connect="1" arrows="1" fold="1" page="1" pageScale="1" pageWidth="827" pageHeight="1169" math="0" shadow="0">
      <root>
        <mxCell id="WIyWlLk6GJQsqaUBKTNV-0" />
        <mxCell id="WIyWlLk6GJQsqaUBKTNV-1" parent="WIyWlLk6GJQsqaUBKTNV-0" />
        <mxCell id="k93TU3Id_8kRUmizng7l-19" value="Main Menu" style="rounded=1;whiteSpace=wrap;html=1;fontSize=12;glass=0;strokeWidth=1;shadow=0;" parent="WIyWlLk6GJQsqaUBKTNV-1" vertex="1">
          <mxGeometry x="290" y="40" width="120" height="40" as="geometry" />
        </mxCell>
        <mxCell id="k93TU3Id_8kRUmizng7l-20" value="Main Game" style="rounded=1;whiteSpace=wrap;html=1;fontSize=12;glass=0;strokeWidth=1;shadow=0;" parent="WIyWlLk6GJQsqaUBKTNV-1" vertex="1">
          <mxGeometry x="290" y="360" width="120" height="40" as="geometry" />
        </mxCell>
        <mxCell id="k93TU3Id_8kRUmizng7l-22" value="Custom Game Setup" style="rounded=1;whiteSpace=wrap;html=1;fontSize=12;glass=0;strokeWidth=1;shadow=0;" parent="WIyWlLk6GJQsqaUBKTNV-1" vertex="1">
          <mxGeometry x="290" y="210" width="120" height="40" as="geometry" />
        </mxCell>
        <mxCell id="k93TU3Id_8kRUmizng7l-42" style="edgeStyle=orthogonalEdgeStyle;rounded=0;orthogonalLoop=1;jettySize=auto;html=1;exitX=0.855;exitY=1;exitDx=0;exitDy=-4.35;exitPerimeter=0;entryX=0.75;entryY=0;entryDx=0;entryDy=0;" parent="WIyWlLk6GJQsqaUBKTNV-1" source="k93TU3Id_8kRUmizng7l-30" target="k93TU3Id_8kRUmizng7l-31" edge="1">
          <mxGeometry relative="1" as="geometry" />
        </mxCell>
        <mxCell id="k93TU3Id_8kRUmizng7l-48" value="Query Decks" style="edgeLabel;html=1;align=center;verticalAlign=middle;resizable=0;points=[];" parent="k93TU3Id_8kRUmizng7l-42" vertex="1" connectable="0">
          <mxGeometry x="0.2467" relative="1" as="geometry">
            <mxPoint x="7" y="-47" as="offset" />
          </mxGeometry>
        </mxCell>
        <mxCell id="k93TU3Id_8kRUmizng7l-30" value="SQLite&lt;br&gt;Database" style="shape=cylinder3;whiteSpace=wrap;html=1;boundedLbl=1;backgroundOutline=1;size=15;" parent="WIyWlLk6GJQsqaUBKTNV-1" vertex="1">
          <mxGeometry x="85" y="70" width="60" height="80" as="geometry" />
        </mxCell>
        <mxCell id="k93TU3Id_8kRUmizng7l-31" value="Deck Customizer" style="rounded=1;whiteSpace=wrap;html=1;fontSize=12;glass=0;strokeWidth=1;shadow=0;" parent="WIyWlLk6GJQsqaUBKTNV-1" vertex="1">
          <mxGeometry x="20" y="260" width="190" height="40" as="geometry" />
        </mxCell>
        <mxCell id="k93TU3Id_8kRUmizng7l-40" style="edgeStyle=orthogonalEdgeStyle;rounded=0;orthogonalLoop=1;jettySize=auto;html=1;exitX=0.25;exitY=0;exitDx=0;exitDy=0;entryX=0.145;entryY=1;entryDx=0;entryDy=-4.35;entryPerimeter=0;" parent="WIyWlLk6GJQsqaUBKTNV-1" source="k93TU3Id_8kRUmizng7l-31" target="k93TU3Id_8kRUmizng7l-30" edge="1">
          <mxGeometry relative="1" as="geometry" />
        </mxCell>
        <mxCell id="k93TU3Id_8kRUmizng7l-41" value="&lt;div&gt;Create/Update/Delete Decks&lt;/div&gt;" style="edgeLabel;html=1;align=center;verticalAlign=middle;resizable=0;points=[];" parent="k93TU3Id_8kRUmizng7l-40" vertex="1" connectable="0">
          <mxGeometry x="-0.035" relative="1" as="geometry">
            <mxPoint y="35" as="offset" />
          </mxGeometry>
        </mxCell>
        <mxCell id="k93TU3Id_8kRUmizng7l-51" value="" style="shape=flexArrow;endArrow=classic;html=1;rounded=0;entryX=0.25;entryY=0;entryDx=0;entryDy=0;exitX=0.25;exitY=1;exitDx=0;exitDy=0;" parent="WIyWlLk6GJQsqaUBKTNV-1" source="k93TU3Id_8kRUmizng7l-19" target="k93TU3Id_8kRUmizng7l-22" edge="1">
          <mxGeometry width="50" height="50" relative="1" as="geometry">
            <mxPoint x="340" y="270" as="sourcePoint" />
            <mxPoint x="390" y="220" as="targetPoint" />
          </mxGeometry>
        </mxCell>
        <mxCell id="k93TU3Id_8kRUmizng7l-53" value="&lt;div&gt;Custom Game&lt;/div&gt;" style="edgeLabel;html=1;align=center;verticalAlign=middle;resizable=0;points=[];" parent="k93TU3Id_8kRUmizng7l-51" vertex="1" connectable="0">
          <mxGeometry x="-0.0564" y="1" relative="1" as="geometry">
            <mxPoint x="-1" y="-31" as="offset" />
          </mxGeometry>
        </mxCell>
        <mxCell id="k93TU3Id_8kRUmizng7l-54" value="" style="shape=flexArrow;endArrow=classic;html=1;rounded=0;entryX=0.5;entryY=0;entryDx=0;entryDy=0;exitX=0.5;exitY=1;exitDx=0;exitDy=0;" parent="WIyWlLk6GJQsqaUBKTNV-1" edge="1">
          <mxGeometry width="50" height="50" relative="1" as="geometry">
            <mxPoint x="380" y="250" as="sourcePoint" />
            <mxPoint x="380" y="360" as="targetPoint" />
          </mxGeometry>
        </mxCell>
        <mxCell id="k93TU3Id_8kRUmizng7l-55" value="Play" style="edgeLabel;html=1;align=center;verticalAlign=middle;resizable=0;points=[];" parent="k93TU3Id_8kRUmizng7l-54" vertex="1" connectable="0">
          <mxGeometry x="-0.0564" y="1" relative="1" as="geometry">
            <mxPoint as="offset" />
          </mxGeometry>
        </mxCell>
        <mxCell id="k93TU3Id_8kRUmizng7l-58" value="" style="shape=flexArrow;endArrow=classic;html=1;rounded=0;entryX=0.75;entryY=1;entryDx=0;entryDy=0;exitX=0.75;exitY=0;exitDx=0;exitDy=0;" parent="WIyWlLk6GJQsqaUBKTNV-1" source="k93TU3Id_8kRUmizng7l-22" target="k93TU3Id_8kRUmizng7l-19" edge="1">
          <mxGeometry width="50" height="50" relative="1" as="geometry">
            <mxPoint x="460" y="80" as="sourcePoint" />
            <mxPoint x="460" y="210" as="targetPoint" />
          </mxGeometry>
        </mxCell>
        <mxCell id="k93TU3Id_8kRUmizng7l-59" value="Back" style="edgeLabel;html=1;align=center;verticalAlign=middle;resizable=0;points=[];" parent="k93TU3Id_8kRUmizng7l-58" vertex="1" connectable="0">
          <mxGeometry x="-0.0564" y="1" relative="1" as="geometry">
            <mxPoint x="1" y="31" as="offset" />
          </mxGeometry>
        </mxCell>
        <mxCell id="k93TU3Id_8kRUmizng7l-60" value="" style="shape=flexArrow;endArrow=classic;html=1;rounded=0;exitX=0.25;exitY=1;exitDx=0;exitDy=0;entryX=1;entryY=0.5;entryDx=0;entryDy=0;" parent="WIyWlLk6GJQsqaUBKTNV-1" source="k93TU3Id_8kRUmizng7l-22" target="k93TU3Id_8kRUmizng7l-31" edge="1">
          <mxGeometry width="50" height="50" relative="1" as="geometry">
            <mxPoint x="340" y="270" as="sourcePoint" />
            <mxPoint x="390" y="220" as="targetPoint" />
            <Array as="points">
              <mxPoint x="320" y="280" />
            </Array>
          </mxGeometry>
        </mxCell>
        <mxCell id="k93TU3Id_8kRUmizng7l-61" value="Manage Decks" style="edgeLabel;html=1;align=center;verticalAlign=middle;resizable=0;points=[];" parent="k93TU3Id_8kRUmizng7l-60" vertex="1" connectable="0">
          <mxGeometry x="0.0259" y="2" relative="1" as="geometry">
            <mxPoint y="-2" as="offset" />
          </mxGeometry>
        </mxCell>
        <mxCell id="k93TU3Id_8kRUmizng7l-63" value="" style="shape=flexArrow;endArrow=classic;html=1;rounded=0;exitX=1;exitY=0.25;exitDx=0;exitDy=0;entryX=1;entryY=0.75;entryDx=0;entryDy=0;" parent="WIyWlLk6GJQsqaUBKTNV-1" source="k93TU3Id_8kRUmizng7l-19" target="k93TU3Id_8kRUmizng7l-20" edge="1">
          <mxGeometry width="50" height="50" relative="1" as="geometry">
            <mxPoint x="340" y="270" as="sourcePoint" />
            <mxPoint x="390" y="220" as="targetPoint" />
            <Array as="points">
              <mxPoint x="480" y="50" />
              <mxPoint x="480" y="390" />
            </Array>
          </mxGeometry>
        </mxCell>
        <mxCell id="k93TU3Id_8kRUmizng7l-64" value="Play" style="edgeLabel;html=1;align=center;verticalAlign=middle;resizable=0;points=[];" parent="k93TU3Id_8kRUmizng7l-63" vertex="1" connectable="0">
          <mxGeometry x="0.0036" y="-1" relative="1" as="geometry">
            <mxPoint x="-39" y="-171" as="offset" />
          </mxGeometry>
        </mxCell>
        <mxCell id="k93TU3Id_8kRUmizng7l-65" value="" style="shape=flexArrow;endArrow=classic;html=1;rounded=0;entryX=1;entryY=0.75;entryDx=0;entryDy=0;exitX=1;exitY=0.25;exitDx=0;exitDy=0;" parent="WIyWlLk6GJQsqaUBKTNV-1" source="k93TU3Id_8kRUmizng7l-20" target="k93TU3Id_8kRUmizng7l-19" edge="1">
          <mxGeometry width="50" height="50" relative="1" as="geometry">
            <mxPoint x="340" y="270" as="sourcePoint" />
            <mxPoint x="390" y="220" as="targetPoint" />
            <Array as="points">
              <mxPoint x="450" y="370" />
              <mxPoint x="450" y="70" />
            </Array>
          </mxGeometry>
        </mxCell>
        <mxCell id="k93TU3Id_8kRUmizng7l-66" value="Main Menu" style="edgeLabel;html=1;align=center;verticalAlign=middle;resizable=0;points=[];" parent="k93TU3Id_8kRUmizng7l-65" vertex="1" connectable="0">
          <mxGeometry x="-0.8817" y="3" relative="1" as="geometry">
            <mxPoint x="8" y="-17" as="offset" />
          </mxGeometry>
        </mxCell>
        <mxCell id="k93TU3Id_8kRUmizng7l-67" value="" style="shape=flexArrow;endArrow=classic;html=1;rounded=0;exitX=0.893;exitY=-0.002;exitDx=0;exitDy=0;entryX=0;entryY=0.75;entryDx=0;entryDy=0;exitPerimeter=0;" parent="WIyWlLk6GJQsqaUBKTNV-1" source="k93TU3Id_8kRUmizng7l-31" target="k93TU3Id_8kRUmizng7l-22" edge="1">
          <mxGeometry width="50" height="50" relative="1" as="geometry">
            <mxPoint x="340" y="270" as="sourcePoint" />
            <mxPoint x="390" y="220" as="targetPoint" />
            <Array as="points">
              <mxPoint x="190" y="240" />
            </Array>
          </mxGeometry>
        </mxCell>
        <mxCell id="k93TU3Id_8kRUmizng7l-69" value="Back" style="edgeLabel;html=1;align=center;verticalAlign=middle;resizable=0;points=[];" parent="k93TU3Id_8kRUmizng7l-67" vertex="1" connectable="0">
          <mxGeometry x="-0.1023" y="-1" relative="1" as="geometry">
            <mxPoint x="-14" as="offset" />
          </mxGeometry>
        </mxCell>
        <mxCell id="k93TU3Id_8kRUmizng7l-70" style="edgeStyle=orthogonalEdgeStyle;rounded=0;orthogonalLoop=1;jettySize=auto;html=1;exitX=0.855;exitY=1;exitDx=0;exitDy=-4.35;exitPerimeter=0;entryX=-0.007;entryY=0.105;entryDx=0;entryDy=0;entryPerimeter=0;" parent="WIyWlLk6GJQsqaUBKTNV-1" source="k93TU3Id_8kRUmizng7l-30" target="k93TU3Id_8kRUmizng7l-22" edge="1">
          <mxGeometry relative="1" as="geometry" />
        </mxCell>
        <mxCell id="k93TU3Id_8kRUmizng7l-72" value="" style="shape=flexArrow;endArrow=classic;html=1;rounded=0;exitX=0.25;exitY=1;exitDx=0;exitDy=0;entryX=0;entryY=0.5;entryDx=0;entryDy=0;" parent="WIyWlLk6GJQsqaUBKTNV-1" source="k93TU3Id_8kRUmizng7l-20" target="k93TU3Id_8kRUmizng7l-20" edge="1">
          <mxGeometry width="50" height="50" relative="1" as="geometry">
            <mxPoint x="340" y="270" as="sourcePoint" />
            <mxPoint x="240" y="380" as="targetPoint" />
            <Array as="points">
              <mxPoint x="320" y="430" />
              <mxPoint x="240" y="430" />
              <mxPoint x="240" y="380" />
            </Array>
          </mxGeometry>
        </mxCell>
        <mxCell id="k93TU3Id_8kRUmizng7l-73" value="Restart" style="edgeLabel;html=1;align=center;verticalAlign=middle;resizable=0;points=[];" parent="k93TU3Id_8kRUmizng7l-72" vertex="1" connectable="0">
          <mxGeometry x="-0.434" y="-2" relative="1" as="geometry">
            <mxPoint y="2" as="offset" />
          </mxGeometry>
        </mxCell>
      </root>
    </mxGraphModel>
  </diagram>
</mxfile>
